<svg xmlns="http://www.w3.org/2000/svg" width="64" height="60" viewBox="0 0 64 60">
  <defs>
    <style>
      .cls-1 {
        fill: #fff;
        fill-rule: evenodd;
      }
    </style>
  </defs>
  <path id="note.svg" class="cls-1" d="M1016.83,871.171l-12-12A4.009,4.009,0,0,0,1002,858H960a6.006,6.006,0,0,0-6,6v48a6.007,6.007,0,0,0,6,6h52a6.006,6.006,0,0,0,6-6V874A4,4,0,0,0,1016.83,871.171ZM1014,912a2,2,0,0,1-2,2H960a2,2,0,0,1-2-2V864a2,2,0,0,1,2-2h40v8h0a6,6,0,0,0,6,6h8v36Zm-6-38h-2a4,4,0,0,1-4-4h0v-8l12,12h-6Zm-23-2h10a1,1,0,0,0,0-2H985A1,1,0,0,0,985,872Zm0,6h10a1,1,0,0,0,0-2H985A1,1,0,0,0,985,878Zm-1,5a1,1,0,0,0,1,1h24a1,1,0,0,0,0-2H985A1,1,0,0,0,984,883Zm25,11H963a1,1,0,1,0,0,2h46A1,1,0,1,0,1009,894Zm0,6H963a1,1,0,0,0,0,2h46A1,1,0,0,0,1009,900Zm0,6H963a1,1,0,1,0,0,2h46A1,1,0,1,0,1009,906Zm0-18H963a1,1,0,0,0,0,2h46A1,1,0,0,0,1009,888Zm-45-4h14a2,2,0,0,0,2-2V870a2,2,0,0,0-2-2H964a2,2,0,0,0-2,2v12A2,2,0,0,0,964,884Zm2-12h10v8H966v-8Z" transform="translate(-954 -858)"/>
</svg>
