<svg xmlns="http://www.w3.org/2000/svg" width="64" height="64" viewBox="0 0 64 64">
  <defs>
    <style>
      .cls-1 {
        fill: #f49244;
        fill-rule: evenodd;
      }
    </style>
  </defs>
  <path id="paperplane.svg" class="cls-1" d="M1085.09,8624.32a2.036,2.036,0,0,0-1.09-.32,1.959,1.959,0,0,0-1.11.34l-60,40a1.985,1.985,0,0,0-.88,1.87,2.013,2.013,0,0,0,1.25,1.65l15.65,6.26,7.35,12.87a2.005,2.005,0,0,0,1.72,1.01H1048a2,2,0,0,0,1.71-.97l4.16-6.93,19.39,7.76a2.111,2.111,0,0,0,.74.14,2,2,0,0,0,.98-0.26,1.966,1.966,0,0,0,.99-1.41l10-60A1.994,1.994,0,0,0,1085.09,8624.32Zm-56.82,41.23,46.35-30.9-33.7,36.08a3.152,3.152,0,0,0-.53-0.33Zm14.11,6.58-0.02-.02,37.89-40.55-32.3,50.33Zm30.06,11.09-17.09-6.83a3.9,3.9,0,0,0-1.25-.24l26.31-40.78Z" transform="translate(-1022 -8624)"/>
</svg>
